<mxfile host="app.diagrams.net" modified="2024-03-19T19:14:26.626Z" agent="Mozilla/5.0 (Windows NT 10.0; Win64; x64) AppleWebKit/537.36 (KHTML, like Gecko) Chrome/121.0.0.0 Safari/537.36 OPR/107.0.0.0" etag="Sntn1fWEUu7Wg86QU0G2" version="24.0.7" type="device">
  <diagram name="Page-1" id="f3JxYNHAle-M9s59gHFQ">
    <mxGraphModel dx="1161" dy="638" grid="1" gridSize="10" guides="1" tooltips="1" connect="1" arrows="1" fold="1" page="1" pageScale="1" pageWidth="850" pageHeight="1100" math="0" shadow="0">
      <root>
        <mxCell id="0" />
        <mxCell id="1" parent="0" />
        <mxCell id="7Y_wxRb8aCwUCXhzikZ--1" value="DATABASE" style="image;sketch=0;aspect=fixed;html=1;points=[];align=center;fontSize=12;image=img/lib/mscae/Database_General.svg;" vertex="1" parent="1">
          <mxGeometry x="596" y="540" width="108" height="142.11" as="geometry" />
        </mxCell>
        <mxCell id="7Y_wxRb8aCwUCXhzikZ--2" value="USER" style="sketch=0;aspect=fixed;pointerEvents=1;shadow=0;dashed=0;html=1;strokeColor=none;labelPosition=center;verticalLabelPosition=bottom;verticalAlign=top;align=center;fillColor=#00188D;shape=mxgraph.azure.user" vertex="1" parent="1">
          <mxGeometry x="10" y="217.44" width="127" height="135.11" as="geometry" />
        </mxCell>
        <mxCell id="7Y_wxRb8aCwUCXhzikZ--3" value="API GATEWAY" style="outlineConnect=0;dashed=0;verticalLabelPosition=bottom;verticalAlign=top;align=center;html=1;shape=mxgraph.aws3.api_gateway;fillColor=#D9A741;gradientColor=none;" vertex="1" parent="1">
          <mxGeometry x="269" y="199.25" width="156.5" height="171.5" as="geometry" />
        </mxCell>
        <object placeholders="1" c4Type="Traffic Signs" c4Container="Traffic Signs" c4Technology="" c4Description="Microservice that provides information about traffic signs in accidents" label="&lt;font style=&quot;font-size: 16px&quot;&gt;&lt;b&gt;%c4Type%&lt;/b&gt;&lt;/font&gt;&lt;div&gt;[%c4Container%:&amp;nbsp;%c4Technology%]&lt;/div&gt;&lt;br&gt;&lt;div&gt;&lt;font style=&quot;font-size: 11px&quot;&gt;&lt;font color=&quot;#E6E6E6&quot;&gt;%c4Description%&lt;/font&gt;&lt;/div&gt;" id="7Y_wxRb8aCwUCXhzikZ--4">
          <mxCell style="shape=hexagon;size=50;perimeter=hexagonPerimeter2;whiteSpace=wrap;html=1;fixedSize=1;rounded=1;labelBackgroundColor=none;fillColor=#23A2D9;fontSize=12;fontColor=#ffffff;align=center;strokeColor=#0E7DAD;metaEdit=1;points=[[0.5,0,0],[1,0.25,0],[1,0.5,0],[1,0.75,0],[0.5,1,0],[0,0.75,0],[0,0.5,0],[0,0.25,0]];resizable=0;" vertex="1" parent="1">
            <mxGeometry x="550" y="200" width="200" height="170" as="geometry" />
          </mxCell>
        </object>
        <mxCell id="7Y_wxRb8aCwUCXhzikZ--5" style="rounded=0;orthogonalLoop=1;jettySize=auto;html=1;exitX=1;exitY=0.5;exitDx=0;exitDy=0;exitPerimeter=0;" edge="1" parent="1" source="7Y_wxRb8aCwUCXhzikZ--2" target="7Y_wxRb8aCwUCXhzikZ--3">
          <mxGeometry relative="1" as="geometry" />
        </mxCell>
        <mxCell id="7Y_wxRb8aCwUCXhzikZ--6" style="edgeStyle=orthogonalEdgeStyle;rounded=0;orthogonalLoop=1;jettySize=auto;html=1;entryX=0;entryY=0.5;entryDx=0;entryDy=0;entryPerimeter=0;" edge="1" parent="1" source="7Y_wxRb8aCwUCXhzikZ--3" target="7Y_wxRb8aCwUCXhzikZ--4">
          <mxGeometry relative="1" as="geometry" />
        </mxCell>
        <mxCell id="7Y_wxRb8aCwUCXhzikZ--7" value="HTTP(GET)" style="edgeLabel;html=1;align=center;verticalAlign=middle;resizable=0;points=[];" vertex="1" connectable="0" parent="7Y_wxRb8aCwUCXhzikZ--6">
          <mxGeometry x="-0.0128" y="-3" relative="1" as="geometry">
            <mxPoint y="-18" as="offset" />
          </mxGeometry>
        </mxCell>
        <mxCell id="7Y_wxRb8aCwUCXhzikZ--9" value="REST" style="edgeLabel;html=1;align=center;verticalAlign=middle;resizable=0;points=[];" vertex="1" connectable="0" parent="7Y_wxRb8aCwUCXhzikZ--6">
          <mxGeometry x="0.0976" y="-2" relative="1" as="geometry">
            <mxPoint x="-14" y="13" as="offset" />
          </mxGeometry>
        </mxCell>
        <mxCell id="7Y_wxRb8aCwUCXhzikZ--8" style="edgeStyle=orthogonalEdgeStyle;rounded=0;orthogonalLoop=1;jettySize=auto;html=1;exitX=0.5;exitY=1;exitDx=0;exitDy=0;exitPerimeter=0;entryX=0.502;entryY=0;entryDx=0;entryDy=0;entryPerimeter=0;" edge="1" parent="1" source="7Y_wxRb8aCwUCXhzikZ--4" target="7Y_wxRb8aCwUCXhzikZ--1">
          <mxGeometry relative="1" as="geometry" />
        </mxCell>
      </root>
    </mxGraphModel>
  </diagram>
</mxfile>
